<mxfile host="app.diagrams.net" modified="2021-10-06T15:48:18.401Z" agent="5.0 (X11)" etag="PIj4lqQap2QhvRGUZN9X" version="15.4.3" type="github">
  <diagram id="C5RBs43oDa-KdzZeNtuy" name="Page-1">
    <mxGraphModel dx="1811" dy="577" grid="1" gridSize="10" guides="1" tooltips="1" connect="1" arrows="1" fold="1" page="1" pageScale="1" pageWidth="827" pageHeight="1169" math="0" shadow="0">
      <root>
        <mxCell id="WIyWlLk6GJQsqaUBKTNV-0" />
        <mxCell id="WIyWlLk6GJQsqaUBKTNV-1" parent="WIyWlLk6GJQsqaUBKTNV-0" />
        <mxCell id="YDrGcPQDK-OZlm-c5IT4-21" value="" style="rounded=1;whiteSpace=wrap;html=1;fillColor=#f5f5f5;strokeWidth=2;dashed=1;strokeColor=#666666;fontColor=#333333;" vertex="1" parent="WIyWlLk6GJQsqaUBKTNV-1">
          <mxGeometry x="-60" y="140" width="450" height="210" as="geometry" />
        </mxCell>
        <mxCell id="YDrGcPQDK-OZlm-c5IT4-23" value="" style="rounded=1;whiteSpace=wrap;html=1;fillColor=#f5f5f5;strokeWidth=2;dashed=1;strokeColor=#666666;fontColor=#333333;" vertex="1" parent="WIyWlLk6GJQsqaUBKTNV-1">
          <mxGeometry x="-60" y="426" width="450" height="49" as="geometry" />
        </mxCell>
        <mxCell id="YDrGcPQDK-OZlm-c5IT4-0" value="linked_list_struct.c" style="rounded=1;whiteSpace=wrap;html=1;fillColor=#d5e8d4;strokeColor=#82b366;" vertex="1" parent="WIyWlLk6GJQsqaUBKTNV-1">
          <mxGeometry x="210" y="155" width="150" height="30" as="geometry" />
        </mxCell>
        <mxCell id="YDrGcPQDK-OZlm-c5IT4-2" value="linked_list_struct.h" style="ellipse;whiteSpace=wrap;html=1;fillColor=#f8cecc;strokeColor=#b85450;" vertex="1" parent="WIyWlLk6GJQsqaUBKTNV-1">
          <mxGeometry x="10" y="150" width="150" height="40" as="geometry" />
        </mxCell>
        <mxCell id="YDrGcPQDK-OZlm-c5IT4-3" value="graphical.c" style="rounded=1;whiteSpace=wrap;html=1;fillColor=#d5e8d4;strokeColor=#82b366;" vertex="1" parent="WIyWlLk6GJQsqaUBKTNV-1">
          <mxGeometry x="210" y="225" width="150" height="30" as="geometry" />
        </mxCell>
        <mxCell id="YDrGcPQDK-OZlm-c5IT4-4" value="graphical.h" style="ellipse;whiteSpace=wrap;html=1;fillColor=#f8cecc;strokeColor=#b85450;" vertex="1" parent="WIyWlLk6GJQsqaUBKTNV-1">
          <mxGeometry x="10" y="220" width="150" height="40" as="geometry" />
        </mxCell>
        <mxCell id="YDrGcPQDK-OZlm-c5IT4-5" value="menu_components.c" style="rounded=1;whiteSpace=wrap;html=1;fillColor=#d5e8d4;strokeColor=#82b366;" vertex="1" parent="WIyWlLk6GJQsqaUBKTNV-1">
          <mxGeometry x="210" y="295" width="150" height="30" as="geometry" />
        </mxCell>
        <mxCell id="YDrGcPQDK-OZlm-c5IT4-6" value="menu_components.h" style="ellipse;whiteSpace=wrap;html=1;fillColor=#f8cecc;strokeColor=#b85450;" vertex="1" parent="WIyWlLk6GJQsqaUBKTNV-1">
          <mxGeometry x="10" y="290" width="150" height="40" as="geometry" />
        </mxCell>
        <mxCell id="YDrGcPQDK-OZlm-c5IT4-13" value="" style="endArrow=classic;html=1;rounded=1;strokeWidth=3;edgeStyle=orthogonalEdgeStyle;entryX=1;entryY=0.5;entryDx=0;entryDy=0;exitX=0;exitY=0.5;exitDx=0;exitDy=0;" edge="1" parent="WIyWlLk6GJQsqaUBKTNV-1" source="YDrGcPQDK-OZlm-c5IT4-0" target="YDrGcPQDK-OZlm-c5IT4-2">
          <mxGeometry width="50" height="50" relative="1" as="geometry">
            <mxPoint x="170" y="180" as="sourcePoint" />
            <mxPoint x="320" y="120" as="targetPoint" />
          </mxGeometry>
        </mxCell>
        <mxCell id="YDrGcPQDK-OZlm-c5IT4-14" value="" style="endArrow=classic;html=1;rounded=1;strokeWidth=3;edgeStyle=orthogonalEdgeStyle;exitX=0;exitY=0.5;exitDx=0;exitDy=0;entryX=1;entryY=0.5;entryDx=0;entryDy=0;" edge="1" parent="WIyWlLk6GJQsqaUBKTNV-1" source="YDrGcPQDK-OZlm-c5IT4-3" target="YDrGcPQDK-OZlm-c5IT4-4">
          <mxGeometry width="50" height="50" relative="1" as="geometry">
            <mxPoint x="265" y="160" as="sourcePoint" />
            <mxPoint x="390" y="190" as="targetPoint" />
          </mxGeometry>
        </mxCell>
        <mxCell id="YDrGcPQDK-OZlm-c5IT4-15" value="" style="endArrow=classic;html=1;rounded=1;strokeWidth=3;edgeStyle=orthogonalEdgeStyle;exitX=0;exitY=0.5;exitDx=0;exitDy=0;entryX=1;entryY=0.5;entryDx=0;entryDy=0;" edge="1" parent="WIyWlLk6GJQsqaUBKTNV-1" source="YDrGcPQDK-OZlm-c5IT4-5" target="YDrGcPQDK-OZlm-c5IT4-6">
          <mxGeometry width="50" height="50" relative="1" as="geometry">
            <mxPoint x="275" y="170" as="sourcePoint" />
            <mxPoint x="275" y="230" as="targetPoint" />
          </mxGeometry>
        </mxCell>
        <mxCell id="YDrGcPQDK-OZlm-c5IT4-16" value="" style="endArrow=classic;html=1;rounded=1;strokeWidth=3;edgeStyle=orthogonalEdgeStyle;exitX=0.5;exitY=0;exitDx=0;exitDy=0;entryX=0.5;entryY=1;entryDx=0;entryDy=0;" edge="1" parent="WIyWlLk6GJQsqaUBKTNV-1" source="YDrGcPQDK-OZlm-c5IT4-4" target="YDrGcPQDK-OZlm-c5IT4-2">
          <mxGeometry width="50" height="50" relative="1" as="geometry">
            <mxPoint x="455" y="210" as="sourcePoint" />
            <mxPoint x="380" y="90" as="targetPoint" />
          </mxGeometry>
        </mxCell>
        <mxCell id="YDrGcPQDK-OZlm-c5IT4-17" value="" style="endArrow=classic;html=1;rounded=1;strokeWidth=3;edgeStyle=orthogonalEdgeStyle;exitX=0;exitY=0.5;exitDx=0;exitDy=0;entryX=0;entryY=0.5;entryDx=0;entryDy=0;" edge="1" parent="WIyWlLk6GJQsqaUBKTNV-1" source="YDrGcPQDK-OZlm-c5IT4-6" target="YDrGcPQDK-OZlm-c5IT4-2">
          <mxGeometry width="50" height="50" relative="1" as="geometry">
            <mxPoint x="465" y="220" as="sourcePoint" />
            <mxPoint x="50" y="100" as="targetPoint" />
            <Array as="points">
              <mxPoint x="-30" y="310" />
              <mxPoint x="-30" y="170" />
            </Array>
          </mxGeometry>
        </mxCell>
        <mxCell id="YDrGcPQDK-OZlm-c5IT4-18" value="app_shape_database.c" style="rounded=1;whiteSpace=wrap;html=1;fontStyle=1;fillColor=#d5e8d4;strokeColor=#82b366;" vertex="1" parent="WIyWlLk6GJQsqaUBKTNV-1">
          <mxGeometry x="75" y="435" width="180" height="30" as="geometry" />
        </mxCell>
        <mxCell id="YDrGcPQDK-OZlm-c5IT4-19" value="" style="endArrow=classic;html=1;rounded=1;strokeWidth=3;edgeStyle=orthogonalEdgeStyle;exitX=0.5;exitY=0;exitDx=0;exitDy=0;entryX=0.5;entryY=1;entryDx=0;entryDy=0;" edge="1" parent="WIyWlLk6GJQsqaUBKTNV-1" source="YDrGcPQDK-OZlm-c5IT4-6" target="YDrGcPQDK-OZlm-c5IT4-4">
          <mxGeometry width="50" height="50" relative="1" as="geometry">
            <mxPoint x="95" y="230" as="sourcePoint" />
            <mxPoint x="95" y="200" as="targetPoint" />
          </mxGeometry>
        </mxCell>
        <mxCell id="YDrGcPQDK-OZlm-c5IT4-20" value="" style="endArrow=classic;html=1;rounded=1;strokeWidth=3;edgeStyle=orthogonalEdgeStyle;entryX=0.5;entryY=1;entryDx=0;entryDy=0;exitX=0;exitY=0.5;exitDx=0;exitDy=0;" edge="1" parent="WIyWlLk6GJQsqaUBKTNV-1" source="YDrGcPQDK-OZlm-c5IT4-18" target="YDrGcPQDK-OZlm-c5IT4-6">
          <mxGeometry width="50" height="50" relative="1" as="geometry">
            <mxPoint x="105" y="240" as="sourcePoint" />
            <mxPoint x="105" y="210" as="targetPoint" />
            <Array as="points">
              <mxPoint x="30" y="450" />
              <mxPoint x="30" y="383" />
              <mxPoint x="85" y="383" />
            </Array>
          </mxGeometry>
        </mxCell>
        <mxCell id="YDrGcPQDK-OZlm-c5IT4-22" value="&lt;font style=&quot;font-size: 20px;&quot;&gt;&lt;b style=&quot;font-size: 20px;&quot;&gt;Libraries&lt;/b&gt;&lt;/font&gt;" style="text;html=1;strokeColor=none;fillColor=none;align=center;verticalAlign=middle;whiteSpace=wrap;rounded=0;dashed=1;fontSize=20;" vertex="1" parent="WIyWlLk6GJQsqaUBKTNV-1">
          <mxGeometry x="-60" y="100" width="450" height="40" as="geometry" />
        </mxCell>
        <mxCell id="YDrGcPQDK-OZlm-c5IT4-24" value="&lt;font style=&quot;font-size: 20px;&quot;&gt;&lt;b style=&quot;font-size: 20px;&quot;&gt;Main Entrypoint&lt;br style=&quot;font-size: 20px;&quot;&gt;&lt;/b&gt;&lt;/font&gt;" style="text;html=1;strokeColor=none;fillColor=none;align=center;verticalAlign=middle;whiteSpace=wrap;rounded=0;dashed=1;fontSize=20;" vertex="1" parent="WIyWlLk6GJQsqaUBKTNV-1">
          <mxGeometry x="-60" y="386" width="450" height="40" as="geometry" />
        </mxCell>
      </root>
    </mxGraphModel>
  </diagram>
</mxfile>
